<svg xmlns="http://www.w3.org/2000/svg" xmlns:xlink="http://www.w3.org/1999/xlink" width="500" zoomAndPan="magnify" viewBox="0 0 375 374.999991" height="500" preserveAspectRatio="xMidYMid meet" version="1.0"><defs><g/><clipPath id="4a6bf05918"><path d="M 114.554688 142 L 174 142 L 174 194.78125 L 114.554688 194.78125 Z M 114.554688 142 " clip-rule="nonzero"/></clipPath><clipPath id="fc8ba3e6dd"><path d="M 142 99.585938 L 260.804688 99.585938 L 260.804688 194.78125 L 142 194.78125 Z M 142 99.585938 " clip-rule="nonzero"/></clipPath></defs><rect x="-37.5" width="450" fill="#ffffff" y="-37.499999" height="449.999989" fill-opacity="1"/><rect x="-37.5" width="450" fill="#ffffff" y="-37.499999" height="449.999989" fill-opacity="1"/><g fill="#538629" fill-opacity="1"><g transform="translate(103.898435, 248.240549)"><g><path d="M 7.660156 0 L 15.207031 0 L 19.035156 -21.734375 L 27.949219 -21.734375 L 29.042969 -27.910156 L 3.636719 -27.910156 L 2.539062 -21.734375 L 11.492188 -21.734375 Z M 7.660156 0 "/></g></g></g><g fill="#538629" fill-opacity="1"><g transform="translate(130.278861, 248.240549)"><g><path d="M 10.28125 0.507812 C 17.121094 0.507812 22.242188 -3.480469 23.414062 -10.046875 C 24.546875 -16.613281 20.835938 -20.601562 14.035156 -20.601562 C 7.152344 -20.601562 2.03125 -16.613281 0.859375 -10.046875 C -0.273438 -3.519531 3.441406 0.507812 10.28125 0.507812 Z M 11.257812 -5.082031 C 8.601562 -5.082031 7.074219 -7.113281 7.582031 -10.046875 C 8.089844 -12.976562 10.320312 -15.011719 13.015625 -15.011719 C 15.714844 -15.011719 17.199219 -12.976562 16.691406 -10.046875 C 16.183594 -7.113281 13.957031 -5.082031 11.257812 -5.082031 Z M 11.257812 -5.082031 "/></g></g></g><g fill="#538629" fill-opacity="1"><g transform="translate(154.548849, 248.240549)"><g><path d="M 7.933594 0.507812 C 10.828125 0.507812 13.09375 -0.742188 14.816406 -2.894531 L 15.167969 -2.894531 L 14.660156 0 L 21.382812 0 L 26.503906 -29.082031 L 19.78125 -29.082031 L 17.707031 -17.199219 L 17.355469 -17.199219 C 16.378906 -19.347656 14.542969 -20.601562 11.648438 -20.601562 C 6.332031 -20.601562 1.992188 -16.457031 0.898438 -10.046875 C -0.234375 -3.597656 2.578125 0.507812 7.933594 0.507812 Z M 11.257812 -5.082031 C 8.640625 -5.082031 7.074219 -7.191406 7.621094 -10.046875 C 8.089844 -12.898438 10.398438 -15.011719 13.015625 -15.011719 C 15.675781 -15.011719 17.238281 -12.898438 16.730469 -10.046875 C 16.183594 -7.191406 13.917969 -5.082031 11.257812 -5.082031 Z M 11.257812 -5.082031 "/></g></g></g><g fill="#538629" fill-opacity="1"><g transform="translate(179.561397, 248.240549)"><g><path d="M 10.28125 0.507812 C 17.121094 0.507812 22.242188 -3.480469 23.414062 -10.046875 C 24.546875 -16.613281 20.835938 -20.601562 14.035156 -20.601562 C 7.152344 -20.601562 2.03125 -16.613281 0.859375 -10.046875 C -0.273438 -3.519531 3.441406 0.507812 10.28125 0.507812 Z M 11.257812 -5.082031 C 8.601562 -5.082031 7.074219 -7.113281 7.582031 -10.046875 C 8.089844 -12.976562 10.320312 -15.011719 13.015625 -15.011719 C 15.714844 -15.011719 17.199219 -12.976562 16.691406 -10.046875 C 16.183594 -7.113281 13.957031 -5.082031 11.257812 -5.082031 Z M 11.257812 -5.082031 "/></g></g></g><g fill="#538629" fill-opacity="1"><g transform="translate(203.831384, 248.240549)"><g/></g></g><g fill="#538629" fill-opacity="1"><g transform="translate(213.328332, 248.240549)"><g><path d="M 0.078125 0 L 6.800781 0 L 11.921875 -29.082031 L 5.199219 -29.082031 Z M 0.078125 0 "/></g></g></g><g fill="#538629" fill-opacity="1"><g transform="translate(223.76326, 248.240549)"><g><path d="M 7.503906 -22.476562 C 9.734375 -22.476562 11.609375 -24 12 -26.152344 C 12.351562 -28.300781 11.0625 -29.824219 8.835938 -29.824219 C 6.644531 -29.824219 4.730469 -28.300781 4.339844 -26.152344 C 3.988281 -24 5.316406 -22.476562 7.503906 -22.476562 Z M 0.195312 0 L 6.917969 0 L 10.4375 -20.09375 L 3.714844 -20.09375 Z M 0.195312 0 "/></g></g></g><g fill="#538629" fill-opacity="1"><g transform="translate(234.393596, 248.240549)"><g><path d="M 8.679688 0.664062 C 14.816406 0.664062 19.308594 -2.03125 20.09375 -6.410156 C 20.914062 -11.179688 16.457031 -11.921875 12.859375 -12.390625 C 10.164062 -12.703125 7.738281 -12.898438 8.050781 -14.738281 C 8.246094 -15.949219 9.695312 -16.769531 11.53125 -16.769531 C 13.640625 -16.769531 14.933594 -15.675781 14.660156 -14.035156 L 20.5625 -14.035156 C 21.304688 -18.136719 17.667969 -20.757812 12.195312 -20.757812 C 6.605469 -20.757812 2.5 -18.097656 1.757812 -14.074219 C 0.78125 -8.5625 5.902344 -8.285156 9.421875 -7.933594 C 11.648438 -7.660156 13.5625 -7.464844 13.25 -5.550781 C 12.976562 -4.222656 11.375 -3.324219 9.5 -3.324219 C 7.035156 -3.324219 5.589844 -4.613281 5.902344 -6.449219 L 0.273438 -6.449219 C -0.507812 -2.148438 2.816406 0.664062 8.679688 0.664062 Z M 8.679688 0.664062 "/></g></g></g><g fill="#538629" fill-opacity="1"><g transform="translate(256.006003, 248.240549)"><g><path d="M 8.207031 0.429688 C 9.460938 0.429688 11.296875 0.195312 12.585938 -0.273438 L 13.40625 -4.886719 C 12.742188 -4.730469 11.921875 -4.652344 11.335938 -4.652344 C 9.851562 -4.652344 9.070312 -5.707031 9.382812 -7.347656 L 10.75 -15.324219 L 15.128906 -15.324219 L 15.988281 -20.09375 L 11.609375 -20.09375 L 12.703125 -26.269531 L 7.386719 -26.269531 L 5.199219 -20.09375 L 2.226562 -20.09375 L 1.367188 -15.324219 L 4.066406 -15.324219 L 2.617188 -7.035156 C 1.835938 -2.578125 4.027344 0.429688 8.207031 0.429688 Z M 8.207031 0.429688 "/></g></g></g><path fill="#81cc35" d="M 246.261719 154.929688 C 246.261719 157.300781 244.339844 159.21875 241.96875 159.21875 L 223.976562 159.21875 C 221.605469 159.21875 219.683594 157.300781 219.683594 154.929688 C 219.683594 152.566406 221.605469 150.644531 223.976562 150.644531 L 241.96875 150.644531 C 244.339844 150.644531 246.261719 152.566406 246.261719 154.929688 " fill-opacity="1" fill-rule="nonzero"/><path fill="#81cc35" d="M 208.761719 165.757812 L 216.988281 165.757812 C 219.359375 165.757812 221.28125 167.675781 221.28125 170.046875 C 221.28125 172.414062 219.359375 174.335938 216.988281 174.335938 L 208.761719 174.335938 C 206.394531 174.335938 204.472656 172.414062 204.472656 170.046875 C 204.472656 167.675781 206.394531 165.757812 208.761719 165.757812 " fill-opacity="1" fill-rule="nonzero"/><g clip-path="url(#4a6bf05918)"><path fill="#66a830" d="M 173.324219 194.785156 L 142.328125 194.785156 L 114.609375 142.476562 L 145.605469 142.476562 L 173.324219 194.785156 " fill-opacity="1" fill-rule="nonzero"/></g><g clip-path="url(#fc8ba3e6dd)"><path fill="#81cc35" d="M 260.699219 139.738281 C 260.742188 142.144531 258.804688 144.105469 256.40625 144.105469 L 202.152344 144.105469 C 200.941406 144.105469 199.828125 144.773438 199.261719 145.84375 C 198.109375 148.019531 199.6875 150.644531 202.152344 150.644531 L 211.582031 150.644531 C 213.945312 150.644531 215.972656 152.488281 216.015625 154.851562 C 216.058594 157.257812 214.121094 159.21875 211.722656 159.21875 L 194.140625 159.21875 C 192.929688 159.21875 191.820312 159.890625 191.253906 160.960938 C 190.097656 163.136719 191.675781 165.757812 194.140625 165.757812 L 198.078125 165.757812 C 200.351562 165.757812 202.328125 167.472656 202.488281 169.738281 C 202.578125 171.042969 202.085938 172.238281 201.242188 173.082031 C 200.464844 173.855469 199.390625 174.335938 198.210938 174.335938 L 186.132812 174.335938 C 184.921875 174.335938 183.8125 175.003906 183.246094 176.074219 L 173.328125 194.785156 L 142.328125 194.785156 L 157.832031 165.535156 L 162.066406 157.542969 L 170.289062 142.015625 L 192.808594 99.527344 L 223.804688 99.527344 L 207.269531 130.734375 C 206.117188 132.910156 207.695312 135.53125 210.15625 135.53125 L 256.265625 135.53125 C 258.628906 135.53125 260.652344 137.375 260.699219 139.738281 " fill-opacity="1" fill-rule="nonzero"/></g></svg>